<svg width="32" height="32" viewBox="0 0 32 32" fill="none" xmlns="http://www.w3.org/2000/svg">
<g clip-path="url(#clip0_1_1281)">
<path d="M32.0003 10.4001L8.58961 20.3681C6.64828 21.1903 5.01806 21.6014 3.69895 21.6014C2.20562 21.6014 1.1225 21.0783 0.449615 20.0321C0.0273931 19.3601 -0.0970513 18.5076 0.076282 17.4747C0.250504 16.4418 0.710949 15.3405 1.45762 14.1707C2.07984 13.2241 3.10073 11.9796 4.52028 10.4374C4.03816 11.1954 3.68493 12.028 3.47495 12.9014C3.10161 14.4943 3.43762 15.6641 4.48295 16.4107C4.98073 16.7592 5.66517 16.9334 6.53628 16.9334C7.23228 16.9334 8.01628 16.8214 8.88828 16.5974L32.0003 10.4001Z" fill="black"/>
</g>
<defs>
<clipPath id="clip0_1_1281">
<rect width="32" height="32" fill="white"/>
</clipPath>
</defs>
</svg>
