<svg width="32" height="14" viewBox="0 0 32 14" fill="none" xmlns="http://www.w3.org/2000/svg">
<g clip-path="url(#clip0_1_1311)">
<path d="M30.3587 13.3317L25.6176 0.278602L25.6144 0.269989H25.5208L24.5445 2.95237L22.7671 7.83567L22.763 7.83181C22.147 7.28827 21.2779 6.94848 20.1834 6.82195L19.8495 6.78749L20.1807 6.74502C21.9857 6.42067 23.199 5.28071 23.199 3.90729C23.199 2.02389 21.4276 0.709283 18.8902 0.709283H13.6106V0.804626H15.1447V10.5365L11.4189 0.278602L11.4157 0.269989H11.3221L10.3458 2.95237L6.58017 13.2982L6.557 13.3008C6.49264 13.3088 6.42899 13.3151 6.36602 13.3198C6.27127 13.3273 6.17712 13.3317 6.08266 13.3317H2.27784L9.51027 0.804624L9.56403 0.710468H0.71849V4.58568H0.812349C0.828982 2.69812 1.92825 0.804624 4.35698 0.804624H7.28708L0 13.4256H9.81709V9.71284H9.72323C9.71046 11.358 8.77782 12.9206 6.74977 13.2735L6.68532 13.2845L8.22982 9.03919H12.5565L14.1156 13.3317H12.5776V13.4256H18.6139V13.3317H17.0694V6.8567H18.8515C20.6651 6.8567 21.7053 7.66696 21.7053 9.079V10.2276C21.7053 10.3541 21.7139 10.5391 21.7234 10.6939V10.6995L20.7655 13.3311H19.5142V13.425H22.1045V13.3311H20.8665L21.7389 10.9348C21.7406 10.9579 21.7415 10.9719 21.7415 10.9719L21.7656 11.1878L21.7888 11.3307C21.9343 12.2143 22.2723 12.8639 22.793 13.2613L22.8678 13.3157C23.2635 13.5907 23.755 13.73 24.3298 13.73C25.091 13.73 25.5986 13.5402 26.0177 13.0935L25.9628 13.0418C25.5767 13.3983 25.2526 13.5426 24.8466 13.5426C24.1548 13.5426 23.7928 12.7035 23.7928 11.876V10.2668C23.7964 9.86746 23.7339 9.47032 23.6077 9.09147L23.5905 9.04157V9.03979H26.7552L28.3143 13.3323H26.7763V13.4262H32V13.3323L30.3587 13.3317ZM8.26427 8.94534L10.3957 3.0896L12.5223 8.94534H8.26427ZM17.0703 6.76254V0.804624H18.4307C20.2478 0.804624 21.2072 1.88488 21.2072 3.92749C21.2072 6.09989 20.6565 6.76254 18.8515 6.76254H17.0703ZM23.5537 8.94534L23.5444 8.92217C23.4038 8.57965 23.1991 8.26712 22.9412 8.00141L22.8521 7.9123L22.8426 7.90339L24.5932 3.0896L26.7199 8.94534H23.5537Z" fill="black"/>
</g>
<defs>
<clipPath id="clip0_1_1311">
<rect width="32" height="13.46" fill="white" transform="translate(0 0.269989)"/>
</clipPath>
</defs>
</svg>
